<?xml version="1.0" encoding="iso-8859-1"?>
<!-- Generator: Adobe Illustrator 19.0.0, SVG Export Plug-In . SVG Version: 6.00 Build 0)  -->
<svg version="1.1" id="Capa_1" xmlns="http://www.w3.org/2000/svg" xmlns:xlink="http://www.w3.org/1999/xlink" x="0px" y="0px"
	 viewBox="0 0 512 512" style="enable-background:new 0 0 512 512;" xml:space="preserve">
<polygon style="fill:#FA962A;" points="290.712,494.644 290.712,477.288 308.068,477.288 308.068,459.932 290.712,459.932 
	290.712,416.542 273.356,416.542 273.356,494.644 238.644,494.644 238.644,512 325.424,512 325.424,494.644 "/>
<polygon style="fill:#FCAC2B;" points="238.644,494.644 238.644,477.288 256,477.288 256,459.932 238.644,459.932 238.644,416.542 
	221.288,416.542 221.288,494.644 186.576,494.644 186.576,512 273.356,512 273.356,494.644 "/>
<polygon style="fill:#FDB62F;" points="65.085,95.458 4.339,121.492 65.085,147.525 108.475,147.525 108.475,95.458 "/>
<path style="fill:#E5E5E5;" d="M438.237,52.068L438.237,52.068c-58.307,0-111.425,33.532-136.496,86.181L256,234.305L187.548,90.563
	c-9.928-21.747-30.842-36.43-54.671-38.374c-35.189-2.187-65.484,24.567-67.671,59.756c-0.078,1.319-0.121,2.638-0.121,3.957
	v131.419c0,103.042,83.534,186.576,186.576,186.576s186.576-95.458,186.576-173.559l0,0c38.339,0,69.424-31.084,69.424-69.424
	h-69.424c38.339,0,69.424-31.084,69.424-69.424h-69.424c38.339,0,69.424-31.084,69.424-69.424H438.237z"/>
<g>
	<path style="fill:#DE4C3C;" d="M160.542,0h43.39l0,0l0,0c0,28.759-23.309,52.068-52.068,52.068h-43.39l0,0l0,0
		C108.475,23.309,131.784,0,160.542,0z"/>
	<circle style="fill:#DE4C3C;" cx="125.831" cy="112.814" r="17.356"/>
	<path style="fill:#DE4C3C;" d="M34.712,234.305L34.712,234.305c16.775,0,30.373-13.598,30.373-30.373v-56.407L19.647,173.49
		c-9.468,5.406-15.308,15.473-15.308,26.372v4.07C4.339,220.707,17.937,234.305,34.712,234.305z"/>
</g>
<path style="fill:#DEDEDE;" d="M507.661,121.492h-69.424c38.339,0,69.424-31.084,69.424-69.424h-69.424c-0.338,0-0.668,0-1.007,0
	C410.693,299.85,222.26,357.688,111.356,370.037c35.328,40.578,86.502,63.87,140.305,63.861
	c103.042,0,186.576-95.458,186.576-173.559c38.339,0,69.424-31.084,69.424-69.424h-69.424
	C476.577,190.915,507.661,159.831,507.661,121.492z"/>
<path style="fill:#D1D1D1;" d="M290.096,390.508H256c-71.854-0.078-130.091-58.316-130.169-130.169v-8.678h17.356v8.678
	c0.069,62.273,50.54,112.744,112.814,112.814h34.096c27.041-0.13,50.922-17.642,59.184-43.39h-49.89v-17.356h25.418
	c27.041-0.13,50.922-17.642,59.184-43.39H282.034v-17.356h122.819l-1.414,9.91c-3.193,21.981-15.429,41.62-33.757,54.177
	l-0.937,6.569C362.991,361.359,329.563,390.344,290.096,390.508z"/>
<g>
</g>
<g>
</g>
<g>
</g>
<g>
</g>
<g>
</g>
<g>
</g>
<g>
</g>
<g>
</g>
<g>
</g>
<g>
</g>
<g>
</g>
<g>
</g>
<g>
</g>
<g>
</g>
<g>
</g>
</svg>
