<?xml version="1.0" encoding="iso-8859-1"?>
<!-- Generator: Adobe Illustrator 19.0.0, SVG Export Plug-In . SVG Version: 6.00 Build 0)  -->
<svg version="1.1" id="Capa_1" xmlns="http://www.w3.org/2000/svg" xmlns:xlink="http://www.w3.org/1999/xlink" x="0px" y="0px"
	 viewBox="0 0 512 512" style="enable-background:new 0 0 512 512;" xml:space="preserve">
<path style="fill:#B78855;" d="M239.081,328.862l0.003-0.001c-1.04-0.888-1.856-1.907-2.426-3.065
	c-8.905-18.081,36.259-59.508,111.045-96.344c16.788-8.269,33.223-18.534,48.723-24.491
	c-23.889-58.704-86.821-100.72-152.727-100.72C159.886,104.241,0,172.186,0,256c0,130.712,159.886,151.759,243.7,151.759
	c22.185,0,44.034-4.763,64.171-13.318C276.735,381.02,257.412,358.132,239.081,328.862z"/>
<path style="fill:#A3764A;" d="M19.352,256c0-61.162,79.728-114.408,158.781-141.998C95.933,135.678,0,191.077,0,256
	c0,79.202,58.704,118.138,123.615,136.528C66.165,370.07,19.352,329.089,19.352,256z"/>
<path style="fill:#B78855;" d="M500.256,191.856L230.84,328.863c41.402,66.111,129.908,99.706,200.291,65.039
	C502.679,358.66,529.718,265.575,500.256,191.856z"/>
<path style="fill:#A3764A;" d="M451.836,380.178c-69.522,34.243-156.72,1.879-198.745-62.631l-22.252,11.316
	c41.402,66.111,129.908,99.706,200.291,65.039c8.972-4.419,17.243-9.749,24.792-15.835
	C454.575,378.789,453.216,379.498,451.836,380.178z"/>
<ellipse transform="matrix(0.8971 -0.4419 0.4419 0.8971 -77.0512 187.4455)" style="fill:#E0B377;" cx="363.838" cy="259.118" rx="150.955" ry="36.494"/>
<g>
	<path style="fill:#CC9A5E;" d="M248.433,325.797c-8.906-18.081,44.501-62.599,119.287-99.435
		c46.841-23.072,90.958-37.656,119.577-40.892c-24.289-4.224-79.713,11.398-139.593,40.892
		c-74.786,36.836-128.193,81.355-119.287,99.435c3.328,6.756,14.887,8.863,31.961,6.932
		C254.331,331.677,250.208,329.4,248.433,325.797z"/>
	<path style="fill:#CC9A5E;" d="M138.378,252.857c-4.267,0-7.727-3.459-7.727-7.727v-7.689c0-4.268,3.459-7.727,7.727-7.727
		c4.267,0,7.727,3.459,7.727,7.727v7.689C146.105,249.398,142.646,252.857,138.378,252.857z"/>
	<path style="fill:#CC9A5E;" d="M215.505,252.857c-4.267,0-7.727-3.459-7.727-7.727v-7.689c0-4.268,3.459-7.727,7.727-7.727
		c4.267,0,7.727,3.459,7.727,7.727v7.689C223.232,249.398,219.772,252.857,215.505,252.857z"/>
	<path style="fill:#CC9A5E;" d="M251.545,178.133c-4.267,0-7.727-3.459-7.727-7.727v-7.689c0-4.268,3.459-7.727,7.727-7.727
		c4.267,0,7.727,3.459,7.727,7.727v7.689C259.272,174.674,255.812,178.133,251.545,178.133z"/>
	<path style="fill:#CC9A5E;" d="M68.46,252.857c-4.267,0-7.727-3.459-7.727-7.727v-7.689c0-4.268,3.459-7.727,7.727-7.727
		c4.267,0,7.727,3.459,7.727,7.727v7.689C76.187,249.398,72.727,252.857,68.46,252.857z"/>
	<path style="fill:#CC9A5E;" d="M102.338,337.191c-4.267,0-7.727-3.459-7.727-7.727v-7.689c0-4.268,3.459-7.727,7.727-7.727
		s7.727,3.459,7.727,7.727v7.689C110.065,333.732,106.605,337.191,102.338,337.191z"/>
	<path style="fill:#CC9A5E;" d="M174.419,337.191c-4.267,0-7.727-3.459-7.727-7.727v-7.689c0-4.268,3.459-7.727,7.727-7.727
		c4.267,0,7.727,3.459,7.727,7.727v7.689C182.146,333.732,178.686,337.191,174.419,337.191z"/>
	<path style="fill:#CC9A5E;" d="M174.419,178.133c-4.267,0-7.727-3.459-7.727-7.727v-7.689c0-4.268,3.459-7.727,7.727-7.727
		c4.267,0,7.727,3.459,7.727,7.727v7.689C182.146,174.674,178.686,178.133,174.419,178.133z"/>
</g>
<g>
	<path style="fill:#E0B377;" d="M416.535,347.6l7.364-3.207c3.915-1.703,8.466,0.087,10.17,3.998
		c1.704,3.913-0.086,8.465-3.998,10.17l-7.364,3.207C413.22,365.901,407.29,351.628,416.535,347.6z"/>
	<path style="fill:#E0B377;" d="M341.248,357.586c-1.691-3.918,0.114-8.465,4.031-10.157l7.057-3.046
		c3.92-1.691,8.466,0.115,10.157,4.031c1.691,3.918-0.114,8.465-4.031,10.157l-7.057,3.046
		C347.484,363.309,342.939,361.502,341.248,357.586z"/>
</g>
<g>
</g>
<g>
</g>
<g>
</g>
<g>
</g>
<g>
</g>
<g>
</g>
<g>
</g>
<g>
</g>
<g>
</g>
<g>
</g>
<g>
</g>
<g>
</g>
<g>
</g>
<g>
</g>
<g>
</g>
</svg>
