<svg height="512pt" viewBox="0 -47 512.00066 512" width="512pt" xmlns="http://www.w3.org/2000/svg"><path d="m478.988281 71.828125c-.125-.125-.238281-.242187-.34375-.347656-23.839843-23.835938-59.984375-27.847657-87.992187-12.074219-3.878906-11.296875-10.578125-21.835938-20.121094-30.511719-28.054688-25.503906-71.570312-25.246093-99.347656.5625-9.660156 8.972657-16.316406 19.882813-20.019532 31.527344-17.332031-7.03125-36.570312-7.921875-54.386718-2.671875.777344 16.816406-1.324219 42.082031-16.816406 62.675781-10.371094 13.789063-25.152344 23.375-39.097657 29.90625 19.253907 12.460938 29.527344 34.148438 24.777344 56.101563l-9.398437 43.449218 306.480468.570313 13.539063-64.195313c33.066406-30.753906 34.402343-82.808593 2.726562-114.992187zm0 0" fill="#4ce0a1"/><path d="m75.050781 65.285156c-26.765625-20.007812-61.074219-25.460937-61.074219-25.460937s-11.144531 47.003906 14.550782 81.164062c10.371094 13.789063 25.15625 23.375 39.105468 29.910157" fill="#18bb7d"/><path d="m140.855469 150.898438c13.945312-6.53125 28.730469-16.121094 39.101562-29.90625 25.695313-34.164063 14.554688-81.167969 14.554688-81.167969s-34.308594 5.453125-61.074219 25.460937" fill="#18bb7d"/><path d="m129.59375 143.117188c7.238281-12.234376 13.207031-25.230469 13.207031-41.433594 0-41.199219-38.558593-74.59375-38.558593-74.59375s-38.554688 33.394531-38.554688 74.59375c0 16.203125 5.96875 29.199218 13.207031 41.433594" fill="#4ce0a1"/><path d="m165.640625 207c6.109375-28.246094-12.644531-56.046875-43.394531-64.332031-11.742188-3.164063-24.265625-3.164063-36.007813 0-30.75 8.285156-49.503906 36.085937-43.394531 64.332031l9.398438 43.445312h104zm0 0" fill="#ff5046"/><path d="m10 327.746094v80.773437h490.355469v-80.773437" fill="#fcc595"/><path d="m149.109375 327.746094h351.246094v-76.730469h-490.355469v76.730469" fill="#db9970"/><path d="m104.246094 337.746094c-.652344 0-1.3125-.070313-1.960938-.199219-.628906-.128906-1.261718-.320313-1.871094-.570313-.597656-.25-1.179687-.558593-1.71875-.917968-.550781-.359375-1.058593-.78125-1.519531-1.242188-.460937-.457031-.878906-.96875-1.25-1.519531-.359375-.539063-.667969-1.117187-.910156-1.730469-.25-.597656-.449219-1.226562-.570313-1.867187-.128906-.640625-.199218-1.300781-.199218-1.949219 0-.652344.070312-1.3125.199218-1.960938.121094-.628906.320313-1.261718.570313-1.871093.242187-.597657.550781-1.179688.910156-1.71875.371094-.550781.789063-1.058594 1.25-1.519531.460938-.460938.96875-.878907 1.519531-1.25.539063-.359376 1.121094-.667969 1.71875-.917969.609376-.25 1.242188-.441407 1.871094-.570313 1.289063-.261718 2.621094-.261718 3.910156 0 .640626.128906 1.269532.320313 1.867188.570313.613281.25 1.191406.558593 1.730469.917969.550781.371093 1.0625.789062 1.519531 1.25 1.859375 1.859374 2.929688 4.429687 2.929688 7.070312 0 .648438-.070313 1.308594-.199219 1.949219-.121094.640625-.320313 1.269531-.570313 1.867187-.25.613282-.558594 1.191406-.917968 1.730469-.359376.550781-.78125 1.0625-1.242188 1.519531-.457031.460938-.96875.882813-1.519531 1.242188-.539063.359375-1.117188.667968-1.730469.917968-.597656.25-1.226562.441407-1.867188.570313-.640624.128906-1.300781.199219-1.949218.199219zm0 0"/><path d="m448.976562 126.84375c-17.539062 17.097656-52.167968 10.757812-52.121093 10.851562 0 0-6.539063-34.726562 10.851562-52.113281 17.390625-17.382812 52.121094-10.847656 52.121094-10.847656s6.757813 34.949219-10.851563 52.109375zm0 0" fill="#18bb7d"/><path d="m334.5 157.828125c-11.867188-8.023437-26.175781-12.710937-41.578125-12.710937-41.042969 0-74.316406 33.265624-74.316406 74.304687 0 11.296875 2.519531 22.007813 7.035156 31.59375h112.300781" fill="#ff5046"/><path d="m482.074219 251.015625c7.089843-18.15625 10.703125-40.660156 10.703125-63.320313 0-53.152343-47.070313-57.246093-61.289063-51.261718-6.351562 2.667968-15.308593 5.324218-20.480469 5.324218-5.167968 0-14.125-2.65625-20.476562-5.324218-14.21875-5.984375-61.289062.175781-61.289062 51.261718 0 22.660157 3.609374 45.164063 10.699218 63.320313zm0 0" fill="#f7bb50"/><path d="m500.355469 241.015625h-4.457031c4.472656-16.082031 6.875-34.523437 6.875-53.320313 0-6.285156-.589844-11.9375-1.625-17.011718.175781-.269532.339843-.550782.492187-.84375 18.234375-34.855469 11.992187-77.0625-15.527344-105.027344l-.394531-.398438c-23.726562-23.722656-59.363281-30.671874-89.925781-18.515624-4.601563-9.148438-10.890625-17.453126-18.535157-24.402344-31.800781-28.90625-81.378906-28.625-112.878906.636718-8.011718 7.445313-14.480468 16.390626-19.027344 26.253907-13.128906-3.8125-26.207031-4.480469-39.574218-2.019531-.675782-5.121094-1.414063-8.34375-1.535156-8.847657-1.203126-5.089843-6.132813-8.390625-11.296876-7.566406-1.339843.214844-29.785156 4.886719-56.078124 20.964844-11.472657-18.566407-25.09375-30.535157-26.074219-31.386719-3.757813-3.253906-9.335938-3.253906-13.09375 0-.980469.851562-14.601563 12.820312-26.074219 31.386719-26.296875-16.078125-54.742188-20.75-56.078125-20.964844-5.167969-.820313-10.089844 2.480469-11.296875 7.566406-.503906 2.105469-11.90625 52 16.285156 89.480469 7.34375 9.761719 17.144532 18.371094 29.242188 25.699219-2.707032 2.804687-5.167969 5.832031-7.34375 9.058593-9.574219 14.1875-12.894532 31.003907-9.359375 47.351563l6.898437 31.90625h-29.972656c-5.523438 0-10 4.476563-10 10v157.503906c0 5.519531 4.476562 9.996094 10 9.996094h490.355469c5.519531 0 9.996093-4.476563 9.996093-9.996094v-157.503906c0-5.523437-4.476562-10-9.996093-10zm-271.75-21.59375c0-35.457031 28.851562-64.304687 64.316406-64.304687 10.675781 0 21.035156 2.601562 30.316406 7.574218-2.46875 6.941406-3.996093 15.199219-3.996093 25.003906 0 18.796876 2.40625 37.238282 6.875 53.320313h-93.800782c-2.46875-6.894531-3.710937-14.132813-3.710937-21.59375zm118.382812 21.59375c-5.019531-15.449219-7.75-34.097656-7.75-53.320313 0-16.683593 5.632813-28.882812 16.742188-36.265624 11.46875-7.613282 25.84375-7.8125 30.671875-5.78125 6.699218 2.816406 17.09375 6.105468 24.355468 6.105468 7.261719 0 17.65625-3.289062 24.355469-6.105468.011719-.003907.023438-.011719.039063-.015626.605468-.183593 1.210937-.375 1.816406-.574218 6.015625-1.460938 18.710938-1.1875 29.207031 5.789062 10.851563 7.203125 16.351563 19.601563 16.351563 36.847656 0 19.222657-2.730469 37.871094-7.75 53.320313zm95.011719-121.332031c-2.949219 2.871094-6.8125 4.953125-11.175781 6.394531-.394531.117187-.777344.238281-1.15625.363281-7.289063 2.179688-15.824219 2.679688-23.792969 2.164063-.664062-9.699219-.304688-26.746094 8.902344-35.953125 8.742187-8.742188 25.359375-9.671875 36.0625-8.9375.726562 9.679687.484375 26.882812-8.839844 35.96875zm29.863281-40.84375c17.546875 17.832031 23.964844 43.117187 17.890625 66.601562-3.902344-4.914062-8.21875-8.566406-12.261718-11.253906-4.953126-3.289062-10.320313-5.675781-15.726563-7.273438 11.035156-16.890624 9.730469-39.925781 8.554687-49.582031.425782.40625.851563.816407 1.273438 1.234375zm-285.609375-26.941406c1.476563 14.417968 1.625 41.929687-14.285156 63.082031-6.699219 8.90625-16.214844 16.730469-28.347656 23.328125 5.078125-10.25 9.175781-22.273438 9.175781-36.628906 0-11.773438-2.726563-22.878907-6.792969-32.898438 14.496094-9.132812 30.34375-14.289062 40.25-16.882812zm-113.675781 107.6875c.328125-.183594.648437-.390626.953125-.613282 4.546875-2.863281 9.683594-5.132812 15.308594-6.648437 10.078125-2.714844 20.730468-2.714844 30.808594 0 5.625 1.515625 10.765624 3.785156 15.3125 6.648437.304687.226563.621093.429688.945312.613282 15.558594 10.28125 23.78125 27.65625 19.964844 45.300781l-7.695313 35.5625h-87.867187l-7.691406-35.5625c-3.8125-17.644531 4.40625-35.019531 19.960937-45.300781zm31.679687-118.445313c5.617188 6.015625 13.746094 15.832031 19.894532 27.859375.203125.503906.445312.996094.734375 1.472656 4.597656 9.375 7.914062 20.019532 7.914062 31.207032 0 12.019531-3.957031 22.074218-8.832031 31.105468-12.925781-3.324218-26.523438-3.324218-39.449219 0-4.878906-9.03125-8.835937-19.085937-8.835937-31.105468 0-26.214844 18.417968-49.625 28.574218-60.539063zm-67.738281 73.839844c-15.921875-21.164063-15.761719-48.695313-14.285156-63.09375 9.886719 2.574219 25.707031 7.714843 40.25 16.890625-4.066406 10.019531-6.796875 21.128906-6.796875 32.902344 0 14.355468 4.101562 26.382812 9.179688 36.628906-12.132813-6.59375-21.648438-14.421875-28.347657-23.328125zm129.535157 46.777343c-2.175782-3.226562-4.636719-6.253906-7.347657-9.058593 12.097657-7.328125 21.902344-15.9375 29.242188-25.699219 14.765625-19.628906 18.671875-42.667969 18.96875-60.457031 13.703125-2.988281 27-1.761719 40.484375 3.707031 2.582031 1.050781 5.484375.96875 8.007812-.210938 2.519532-1.183593 4.4375-3.367187 5.28125-6.023437 3.296875-10.367187 9.277344-19.785156 17.296875-27.234375 23.949219-22.246094 61.644531-22.460938 85.816407-.488281 7.933593 7.210937 13.945312 16.324219 17.390624 26.359375.964844 2.808594 3.125 5.042968 5.902344 6.101562 2.773438 1.054688 5.875.824219 8.460938-.632812 16.230468-9.144532 35.292968-10.421875 52.152344-4.535156-13.523438-.351563-33.84375 1.699218-47.074219 14.925781-13.035157 13.03125-15.21875 32.941406-14.941407 46.457031-11.6875-1.566406-27.511718.996094-40.777343 9.804688-3.882813 2.582031-8.015625 6.011718-11.804688 10.523437-12.289062-6.679687-26.03125-10.179687-40.191406-10.179687-46.492187 0-84.3125 37.820312-84.3125 84.304687 0 7.382813.933594 14.605469 2.78125 21.597656h-42.878906l6.902343-31.90625c3.535157-16.351562.210938-33.167969-9.359374-47.355469zm-146.058594 236.761719v-137.503906h470.359375v56.734375h-341.246094c-5.523437 0-10 4.472656-10 9.996094 0 5.523437 4.476563 10 10 10h341.246094v60.773437zm0 0"/></svg>